<svg width="512" height="512" viewBox="0 0 512 512" fill="none" xmlns="http://www.w3.org/2000/svg" role="img" aria-label="TaskFlow">
  <defs>
    <linearGradient id="tf-card1" x1="177" y1="103" x2="177" y2="201" gradientUnits="userSpaceOnUse">
      <stop stop-color="#2E6CF0" />
      <stop offset="1" stop-color="#1F55DB" />
    </linearGradient>
    <linearGradient id="tf-card2" x1="170" y1="219" x2="170" y2="303" gradientUnits="userSpaceOnUse">
      <stop stop-color="#18BFA7" />
      <stop offset="1" stop-color="#0FA88B" />
    </linearGradient>
    <linearGradient id="tf-card3" x1="170" y1="321" x2="170" y2="399" gradientUnits="userSpaceOnUse">
      <stop stop-color="#CFDCFC" />
      <stop offset="1" stop-color="#BCCDFA" />
    </linearGradient>
    <linearGradient id="tf-flow" x1="320" y1="140" x2="320" y2="380" gradientUnits="userSpaceOnUse">
      <stop stop-color="#2D7BF2" />
      <stop offset="0.5" stop-color="#2391C6" />
      <stop offset="1" stop-color="#13B89A" />
    </linearGradient>
  </defs>

  <!-- Tuiles / tâches -->
  <rect x="119" y="103" width="116" height="98" rx="24" fill="url(#tf-card1)" />
  <rect x="119" y="219" width="102" height="84" rx="22" fill="url(#tf-card2)" />
  <rect x="119" y="321" width="102" height="78" rx="22" fill="url(#tf-card3)" />

  <!-- Coche -->
  <path d="M158 153 L172 167 L200 133" fill="none" stroke="#FFFFFF" stroke-width="16" stroke-linecap="round" stroke-linejoin="round" />

  <!-- Connecteurs du workflow -->
  <g fill="none" stroke="url(#tf-flow)" stroke-width="15" stroke-linecap="round" stroke-linejoin="round">
    <path d="M248 150 H330 C360 150 374 170 374 200 L374 229" />
    <path d="M374 229 L285 268" />
    <path d="M285 268 L285 320 C285 348 305 366 340 366 L380 366" />
  </g>

  <!-- Nœuds -->
  <g>
    <circle cx="374" cy="229" r="22" fill="url(#tf-flow)" />
    <circle cx="374" cy="229" r="10.5" fill="#EFF4FE" />
    <circle cx="285" cy="268" r="22" fill="url(#tf-flow)" />
    <circle cx="285" cy="268" r="10.5" fill="#EFF4FE" />
    <circle cx="380" cy="366" r="22" fill="url(#tf-flow)" />
    <circle cx="380" cy="366" r="10.5" fill="#EFF4FE" />
  </g>
</svg>
